<svg xmlns="http://www.w3.org/2000/svg" viewBox="0 0 40 30.6"><title>cart</title><g id="Layer_2" data-name="Layer 2"><g id="Layer_1-2" data-name="Layer 1"><path d="M39.4,0H0V1H6.7l3.6,21.7h26L40,0Zm-4,21.7H11.2L7.7,1H38.8Z"/><path d="M17.3,24.7a2.9,2.9,0,0,0-2.9,2.9,3,3,0,0,0,2.9,3,3,3,0,0,0,2.9-3A2.9,2.9,0,0,0,17.3,24.7Zm0,4.9a2,2,0,0,1-1.9-2,2,2,0,0,1,1.9-1.9,1.9,1.9,0,0,1,1.9,1.9A1.9,1.9,0,0,1,17.3,29.6Z"/><path d="M29.3,24.7a2.9,2.9,0,0,0-2.9,2.9,3,3,0,0,0,2.9,3,2.9,2.9,0,0,0,2.8-3A2.8,2.8,0,0,0,29.3,24.7Zm0,4.9a1.9,1.9,0,0,1-1.9-2,1.9,1.9,0,0,1,1.9-1.9,2,2,0,0,1,1.9,1.9A2,2,0,0,1,29.3,29.6Z"/></g></g></svg>